<mxfile host="app.diagrams.net" agent="Mozilla/5.0 (Windows NT 10.0; Win64; x64) AppleWebKit/537.36 (KHTML, like Gecko) Chrome/140.0.0.0 Safari/537.36" version="28.2.5">
  <diagram name="第 1 页" id="obDKehnlXZmR6mIiKRT5">
    <mxGraphModel dx="2253" dy="863" grid="1" gridSize="10" guides="1" tooltips="1" connect="1" arrows="1" fold="1" page="1" pageScale="1" pageWidth="827" pageHeight="1169" math="0" shadow="1">
      <root>
        <mxCell id="0" />
        <mxCell id="1" parent="0" />
        <mxCell id="L7E8TZlruhXBP83Ej5GM-1" value="FE" style="swimlane;sketch=1;hachureGap=4;jiggle=2;curveFitting=1;fontFamily=Comic Sans MS;fontSize=13;" vertex="1" parent="1">
          <mxGeometry x="209" y="50" width="461" height="430" as="geometry" />
        </mxCell>
        <mxCell id="L7E8TZlruhXBP83Ej5GM-8" style="edgeStyle=none;rounded=0;sketch=1;hachureGap=4;jiggle=2;curveFitting=1;orthogonalLoop=1;jettySize=auto;html=1;exitX=0.5;exitY=1;exitDx=0;exitDy=0;fontFamily=Comic Sans MS;fontSize=13;" edge="1" parent="L7E8TZlruhXBP83Ej5GM-1" source="L7E8TZlruhXBP83Ej5GM-4" target="L7E8TZlruhXBP83Ej5GM-5">
          <mxGeometry relative="1" as="geometry" />
        </mxCell>
        <mxCell id="L7E8TZlruhXBP83Ej5GM-4" value="KuduScanNode::computeScanRangeLocations" style="rounded=1;whiteSpace=wrap;html=1;sketch=1;hachureGap=4;jiggle=2;curveFitting=1;fontFamily=Comic Sans MS;fontSize=13;" vertex="1" parent="L7E8TZlruhXBP83Ej5GM-1">
          <mxGeometry x="55" y="140" width="305" height="70" as="geometry" />
        </mxCell>
        <mxCell id="L7E8TZlruhXBP83Ej5GM-7" style="edgeStyle=none;rounded=0;sketch=1;hachureGap=4;jiggle=2;curveFitting=1;orthogonalLoop=1;jettySize=auto;html=1;exitX=0.5;exitY=1;exitDx=0;exitDy=0;fontFamily=Comic Sans MS;fontSize=13;" edge="1" parent="L7E8TZlruhXBP83Ej5GM-1" source="L7E8TZlruhXBP83Ej5GM-3" target="L7E8TZlruhXBP83Ej5GM-4">
          <mxGeometry relative="1" as="geometry" />
        </mxCell>
        <mxCell id="L7E8TZlruhXBP83Ej5GM-3" value="KuduScanNode::init" style="rounded=1;whiteSpace=wrap;html=1;sketch=1;hachureGap=4;jiggle=2;curveFitting=1;fontFamily=Comic Sans MS;fontSize=13;" vertex="1" parent="L7E8TZlruhXBP83Ej5GM-1">
          <mxGeometry x="147.5" y="50" width="120" height="60" as="geometry" />
        </mxCell>
        <mxCell id="L7E8TZlruhXBP83Ej5GM-14" style="edgeStyle=none;rounded=0;sketch=1;hachureGap=4;jiggle=2;curveFitting=1;orthogonalLoop=1;jettySize=auto;html=1;exitX=0.5;exitY=1;exitDx=0;exitDy=0;entryX=0.5;entryY=0;entryDx=0;entryDy=0;fontFamily=Comic Sans MS;fontSize=13;" edge="1" parent="L7E8TZlruhXBP83Ej5GM-1" source="L7E8TZlruhXBP83Ej5GM-5" target="L7E8TZlruhXBP83Ej5GM-13">
          <mxGeometry relative="1" as="geometry" />
        </mxCell>
        <mxCell id="L7E8TZlruhXBP83Ej5GM-5" value="KuduScanNode::createScanTokens" style="rounded=1;whiteSpace=wrap;html=1;sketch=1;hachureGap=4;jiggle=2;curveFitting=1;fontFamily=Comic Sans MS;fontSize=13;" vertex="1" parent="L7E8TZlruhXBP83Ej5GM-1">
          <mxGeometry x="55" y="240" width="305" height="70" as="geometry" />
        </mxCell>
        <mxCell id="L7E8TZlruhXBP83Ej5GM-24" style="edgeStyle=none;rounded=0;sketch=1;hachureGap=4;jiggle=2;curveFitting=1;orthogonalLoop=1;jettySize=auto;html=1;exitX=1;exitY=0.5;exitDx=0;exitDy=0;entryX=0;entryY=0.5;entryDx=0;entryDy=0;fontFamily=Comic Sans MS;fontSize=13;" edge="1" parent="L7E8TZlruhXBP83Ej5GM-1" source="L7E8TZlruhXBP83Ej5GM-13" target="L7E8TZlruhXBP83Ej5GM-23">
          <mxGeometry relative="1" as="geometry" />
        </mxCell>
        <mxCell id="L7E8TZlruhXBP83Ej5GM-13" value="scan tokens" style="rounded=1;whiteSpace=wrap;html=1;sketch=1;hachureGap=4;jiggle=2;curveFitting=1;fontFamily=Comic Sans MS;fontSize=13;" vertex="1" parent="L7E8TZlruhXBP83Ej5GM-1">
          <mxGeometry x="55" y="350" width="122" height="50" as="geometry" />
        </mxCell>
        <mxCell id="L7E8TZlruhXBP83Ej5GM-23" value="scan ranges" style="rounded=1;whiteSpace=wrap;html=1;sketch=1;hachureGap=4;jiggle=2;curveFitting=1;fontFamily=Comic Sans MS;fontSize=13;" vertex="1" parent="L7E8TZlruhXBP83Ej5GM-1">
          <mxGeometry x="251" y="350" width="122" height="50" as="geometry" />
        </mxCell>
        <mxCell id="L7E8TZlruhXBP83Ej5GM-2" value="BE" style="swimlane;sketch=1;hachureGap=4;jiggle=2;curveFitting=1;fontFamily=Comic Sans MS;fontSize=13;" vertex="1" parent="1">
          <mxGeometry x="209" y="520" width="461" height="550" as="geometry" />
        </mxCell>
        <mxCell id="L7E8TZlruhXBP83Ej5GM-33" style="edgeStyle=none;rounded=0;sketch=1;hachureGap=4;jiggle=2;curveFitting=1;orthogonalLoop=1;jettySize=auto;html=1;exitX=0.5;exitY=1;exitDx=0;exitDy=0;entryX=0.5;entryY=0;entryDx=0;entryDy=0;fontFamily=Comic Sans MS;fontSize=13;" edge="1" parent="L7E8TZlruhXBP83Ej5GM-2" source="L7E8TZlruhXBP83Ej5GM-25" target="L7E8TZlruhXBP83Ej5GM-28">
          <mxGeometry relative="1" as="geometry" />
        </mxCell>
        <mxCell id="L7E8TZlruhXBP83Ej5GM-25" value="KuduScanNode::Open" style="rounded=1;whiteSpace=wrap;html=1;sketch=1;hachureGap=4;jiggle=2;curveFitting=1;fontFamily=Comic Sans MS;fontSize=13;" vertex="1" parent="L7E8TZlruhXBP83Ej5GM-2">
          <mxGeometry x="156" y="40" width="149" height="50" as="geometry" />
        </mxCell>
        <mxCell id="L7E8TZlruhXBP83Ej5GM-34" style="edgeStyle=none;rounded=0;sketch=1;hachureGap=4;jiggle=2;curveFitting=1;orthogonalLoop=1;jettySize=auto;html=1;exitX=0.5;exitY=1;exitDx=0;exitDy=0;entryX=0.5;entryY=0;entryDx=0;entryDy=0;fontFamily=Comic Sans MS;fontSize=13;" edge="1" parent="L7E8TZlruhXBP83Ej5GM-2" source="L7E8TZlruhXBP83Ej5GM-28" target="L7E8TZlruhXBP83Ej5GM-29">
          <mxGeometry relative="1" as="geometry" />
        </mxCell>
        <mxCell id="L7E8TZlruhXBP83Ej5GM-28" value="KuduScanNode::ThreadAvailableCb" style="rounded=1;whiteSpace=wrap;html=1;sketch=1;hachureGap=4;jiggle=2;curveFitting=1;fontFamily=Comic Sans MS;fontSize=13;" vertex="1" parent="L7E8TZlruhXBP83Ej5GM-2">
          <mxGeometry x="113.5" y="127" width="234" height="50" as="geometry" />
        </mxCell>
        <mxCell id="L7E8TZlruhXBP83Ej5GM-35" style="edgeStyle=none;rounded=0;sketch=1;hachureGap=4;jiggle=2;curveFitting=1;orthogonalLoop=1;jettySize=auto;html=1;exitX=0.5;exitY=1;exitDx=0;exitDy=0;entryX=0.5;entryY=0;entryDx=0;entryDy=0;fontFamily=Comic Sans MS;fontSize=13;" edge="1" parent="L7E8TZlruhXBP83Ej5GM-2" source="L7E8TZlruhXBP83Ej5GM-29" target="L7E8TZlruhXBP83Ej5GM-30">
          <mxGeometry relative="1" as="geometry" />
        </mxCell>
        <mxCell id="L7E8TZlruhXBP83Ej5GM-29" value="KuduScanNode::RunScannerThread" style="rounded=1;whiteSpace=wrap;html=1;sketch=1;hachureGap=4;jiggle=2;curveFitting=1;fontFamily=Comic Sans MS;fontSize=13;" vertex="1" parent="L7E8TZlruhXBP83Ej5GM-2">
          <mxGeometry x="118.5" y="207" width="224" height="50" as="geometry" />
        </mxCell>
        <mxCell id="L7E8TZlruhXBP83Ej5GM-36" style="edgeStyle=none;rounded=0;sketch=1;hachureGap=4;jiggle=2;curveFitting=1;orthogonalLoop=1;jettySize=auto;html=1;exitX=0.5;exitY=1;exitDx=0;exitDy=0;entryX=0.5;entryY=0;entryDx=0;entryDy=0;fontFamily=Comic Sans MS;fontSize=13;" edge="1" parent="L7E8TZlruhXBP83Ej5GM-2" source="L7E8TZlruhXBP83Ej5GM-30" target="L7E8TZlruhXBP83Ej5GM-31">
          <mxGeometry relative="1" as="geometry" />
        </mxCell>
        <mxCell id="L7E8TZlruhXBP83Ej5GM-30" value="KuduScanNode::ProcessScanToken" style="rounded=1;whiteSpace=wrap;html=1;sketch=1;hachureGap=4;jiggle=2;curveFitting=1;fontFamily=Comic Sans MS;fontSize=13;" vertex="1" parent="L7E8TZlruhXBP83Ej5GM-2">
          <mxGeometry x="118.5" y="300" width="224" height="50" as="geometry" />
        </mxCell>
        <mxCell id="L7E8TZlruhXBP83Ej5GM-37" style="edgeStyle=none;rounded=0;sketch=1;hachureGap=4;jiggle=2;curveFitting=1;orthogonalLoop=1;jettySize=auto;html=1;exitX=0.5;exitY=1;exitDx=0;exitDy=0;fontFamily=Comic Sans MS;fontSize=13;" edge="1" parent="L7E8TZlruhXBP83Ej5GM-2" source="L7E8TZlruhXBP83Ej5GM-31" target="L7E8TZlruhXBP83Ej5GM-32">
          <mxGeometry relative="1" as="geometry" />
        </mxCell>
        <mxCell id="L7E8TZlruhXBP83Ej5GM-31" value="KuduScanNode::OpenNextScanToken" style="rounded=1;whiteSpace=wrap;html=1;sketch=1;hachureGap=4;jiggle=2;curveFitting=1;fontFamily=Comic Sans MS;fontSize=13;" vertex="1" parent="L7E8TZlruhXBP83Ej5GM-2">
          <mxGeometry x="108.5" y="390" width="244" height="50" as="geometry" />
        </mxCell>
        <mxCell id="L7E8TZlruhXBP83Ej5GM-32" value="KuduScanner::Open" style="rounded=1;whiteSpace=wrap;html=1;sketch=1;hachureGap=4;jiggle=2;curveFitting=1;fontFamily=Comic Sans MS;fontSize=13;" vertex="1" parent="L7E8TZlruhXBP83Ej5GM-2">
          <mxGeometry x="126" y="470" width="209" height="50" as="geometry" />
        </mxCell>
        <mxCell id="L7E8TZlruhXBP83Ej5GM-38" style="edgeStyle=none;rounded=0;sketch=1;hachureGap=4;jiggle=2;curveFitting=1;orthogonalLoop=1;jettySize=auto;html=1;exitX=0.5;exitY=1;exitDx=0;exitDy=0;entryX=1;entryY=0.5;entryDx=0;entryDy=0;fontFamily=Comic Sans MS;dashed=1;dashPattern=8 8;fontSize=13;" edge="1" parent="1" source="L7E8TZlruhXBP83Ej5GM-9" target="L7E8TZlruhXBP83Ej5GM-25">
          <mxGeometry relative="1" as="geometry" />
        </mxCell>
        <mxCell id="L7E8TZlruhXBP83Ej5GM-39" value="Deserialize" style="edgeLabel;html=1;align=center;verticalAlign=middle;resizable=0;points=[];sketch=1;hachureGap=4;jiggle=2;curveFitting=1;fontFamily=Comic Sans MS;fontSize=13;" vertex="1" connectable="0" parent="L7E8TZlruhXBP83Ej5GM-38">
          <mxGeometry x="-0.2327" y="3" relative="1" as="geometry">
            <mxPoint as="offset" />
          </mxGeometry>
        </mxCell>
        <mxCell id="L7E8TZlruhXBP83Ej5GM-9" value="Thrift&amp;nbsp;" style="ellipse;whiteSpace=wrap;html=1;sketch=1;hachureGap=4;jiggle=2;curveFitting=1;fontFamily=Comic Sans MS;fontSize=13;" vertex="1" parent="1">
          <mxGeometry x="760" y="460" width="120" height="80" as="geometry" />
        </mxCell>
        <mxCell id="L7E8TZlruhXBP83Ej5GM-10" style="edgeStyle=none;rounded=0;sketch=1;hachureGap=4;jiggle=2;curveFitting=1;orthogonalLoop=1;jettySize=auto;html=1;exitX=1;exitY=0.5;exitDx=0;exitDy=0;entryX=0.5;entryY=0;entryDx=0;entryDy=0;fontFamily=Comic Sans MS;dashed=1;dashPattern=8 8;fontSize=13;" edge="1" parent="1" source="L7E8TZlruhXBP83Ej5GM-23" target="L7E8TZlruhXBP83Ej5GM-9">
          <mxGeometry relative="1" as="geometry" />
        </mxCell>
        <mxCell id="L7E8TZlruhXBP83Ej5GM-11" value="Serialize" style="edgeLabel;html=1;align=center;verticalAlign=middle;resizable=0;points=[];sketch=1;hachureGap=4;jiggle=2;curveFitting=1;fontFamily=Comic Sans MS;fontSize=13;" vertex="1" connectable="0" parent="L7E8TZlruhXBP83Ej5GM-10">
          <mxGeometry x="0.1161" relative="1" as="geometry">
            <mxPoint as="offset" />
          </mxGeometry>
        </mxCell>
        <mxCell id="L7E8TZlruhXBP83Ej5GM-40" value="&lt;font style=&quot;font-size: 13px;&quot; face=&quot;Comic Sans MS&quot;&gt;包含全部可下推谓词；&lt;br&gt;scan token 的partition 上下界；&lt;br&gt;投影列、&lt;span style=&quot;background-color: transparent; color: light-dark(rgb(0, 0, 0), rgb(255, 255, 255));&quot;&gt;tablet id 及其他信息&lt;/span&gt;&lt;/font&gt;" style="text;html=1;align=left;verticalAlign=middle;whiteSpace=wrap;rounded=0;fontFamily=Architects Daughter;fontSource=https%3A%2F%2Ffonts.googleapis.com%2Fcss%3Ffamily%3DArchitects%2BDaughter;strokeColor=default;dashed=1;dashPattern=1 1;" vertex="1" parent="1">
          <mxGeometry x="-80" y="310" width="220" height="90" as="geometry" />
        </mxCell>
        <mxCell id="L7E8TZlruhXBP83Ej5GM-41" value="" style="endArrow=open;dashed=1;html=1;dashPattern=1 3;strokeWidth=2;rounded=0;sketch=1;hachureGap=4;jiggle=2;curveFitting=1;fontFamily=Architects Daughter;fontSource=https%3A%2F%2Ffonts.googleapis.com%2Fcss%3Ffamily%3DArchitects%2BDaughter;entryX=0;entryY=0.5;entryDx=0;entryDy=0;exitX=1;exitY=1;exitDx=0;exitDy=0;endFill=0;" edge="1" parent="1" source="L7E8TZlruhXBP83Ej5GM-40" target="L7E8TZlruhXBP83Ej5GM-13">
          <mxGeometry width="50" height="50" relative="1" as="geometry">
            <mxPoint x="60" y="500" as="sourcePoint" />
            <mxPoint x="110" y="450" as="targetPoint" />
          </mxGeometry>
        </mxCell>
        <mxCell id="L7E8TZlruhXBP83Ej5GM-45" value="&lt;font style=&quot;font-size: 14px;&quot; face=&quot;Comic Sans MS&quot;&gt;KUDU Client&lt;/font&gt;" style="ellipse;whiteSpace=wrap;html=1;aspect=fixed;sketch=1;hachureGap=4;jiggle=2;curveFitting=1;fontFamily=Architects Daughter;fontSource=https%3A%2F%2Ffonts.googleapis.com%2Fcss%3Ffamily%3DArchitects%2BDaughter;" vertex="1" parent="1">
          <mxGeometry x="890" y="967.5" width="95" height="95" as="geometry" />
        </mxCell>
        <mxCell id="L7E8TZlruhXBP83Ej5GM-42" style="edgeStyle=none;rounded=0;sketch=1;hachureGap=4;jiggle=2;curveFitting=1;orthogonalLoop=1;jettySize=auto;html=1;exitX=1;exitY=0.5;exitDx=0;exitDy=0;fontFamily=Architects Daughter;fontSource=https%3A%2F%2Ffonts.googleapis.com%2Fcss%3Ffamily%3DArchitects%2BDaughter;dashed=1;dashPattern=8 4 1 4;entryX=0;entryY=0.5;entryDx=0;entryDy=0;" edge="1" parent="1" source="L7E8TZlruhXBP83Ej5GM-32" target="L7E8TZlruhXBP83Ej5GM-45">
          <mxGeometry relative="1" as="geometry">
            <mxPoint x="860" y="1015" as="targetPoint" />
          </mxGeometry>
        </mxCell>
        <mxCell id="L7E8TZlruhXBP83Ej5GM-44" value="&lt;font style=&quot;font-size: 12px;&quot; face=&quot;Comic Sans MS&quot;&gt;Scan RPC&lt;/font&gt;" style="edgeLabel;html=1;align=center;verticalAlign=middle;resizable=0;points=[];sketch=1;hachureGap=4;jiggle=2;curveFitting=1;fontFamily=Architects Daughter;fontSource=https%3A%2F%2Ffonts.googleapis.com%2Fcss%3Ffamily%3DArchitects%2BDaughter;" vertex="1" connectable="0" parent="L7E8TZlruhXBP83Ej5GM-42">
          <mxGeometry x="0.0781" y="-1" relative="1" as="geometry">
            <mxPoint as="offset" />
          </mxGeometry>
        </mxCell>
      </root>
    </mxGraphModel>
  </diagram>
</mxfile>
